# xmcd CD database file
#
# Track frame offsets:
#	150
#	13502
#	26614
#	36941
#	51633
#	70165
#	80597
#	90526
#	104195
#	119427
#
# Disc length: 1756 seconds
#
# Revision: 0
# Processed by: cddbd v1.5.2PL0 Copyright (c) Steve Scherf et al.
# Submitted via: CDex 1.81
#
DISCID=8906da0a
DTITLE=Edgar Fernandez - Mexico ... Cielito Lindo
DYEAR=1900
DGENRE=Merengue
TTITLE0=Mexico, Lindo y querido
TTITLE1=La Bikina
TTITLE2=El Mmil amores
TTITLE3=Amaneci en tus Brazos
TTITLE4=La Malanguena
TTITLE5=Las Manitaz
TTITLE6=El Rey
TTITLE7=Amorcito Corazon
TTITLE8=Ay! Jalisco no te Rajes
TTITLE9=Cielito Lindo
EXTD=
EXTT0=
EXTT1=
EXTT2=
EXTT3=
EXTT4=
EXTT5=
EXTT6=
EXTT7=
EXTT8=
EXTT9=
PLAYORDER=
